<svg xmlns="http://www.w3.org/2000/svg" width="28" height="27.996" viewBox="0 0 28 27.996">
  <path id="Union_16" data-name="Union 16" d="M377.55,1330.412c-2.418-2.436-2.077-6.935,1.517-12.375-3.608-5.453-3.936-10.027-1.478-12.471a5.592,5.592,0,0,1,4.1-1.561c2.3,0,5.125,1,8.26,3.061,3.148-2.073,5.991-3.061,8.308-3.061a5.711,5.711,0,0,1,4.18,1.579c2.418,2.436,2.077,6.935-1.518,12.375,3.625,5.475,3.945,10.027,1.5,12.471a5.6,5.6,0,0,1-4.1,1.561c-2.3,0-5.129-.984-8.273-3.061-3.148,2.073-5.991,3.061-8.308,3.061q-.122.005-.243.005A5.709,5.709,0,0,1,377.55,1330.412Zm18.4-6.463q-1.486,1.5-2.93,2.711a11.02,11.02,0,0,0,5.287,1.832,2.028,2.028,0,0,0,1.631-.538,2.264,2.264,0,0,0,.556-1.714,10.942,10.942,0,0,0-1.828-5.278Q397.438,1322.449,395.951,1323.949Zm-15.912,3.988a2.237,2.237,0,0,0,1.7.555,10.993,10.993,0,0,0,5.3-1.823q-1.491-1.233-2.987-2.716t-2.7-2.917C379.295,1324.544,379.164,1327.063,380.038,1327.937Zm6.489-13.437a40.235,40.235,0,0,0-3.135,3.533,39.1,39.1,0,0,0,3.109,3.437,41.235,41.235,0,0,0,3.529,3.14,39.2,39.2,0,0,0,3.441-3.114,40.28,40.28,0,0,0,3.135-3.533,39.2,39.2,0,0,0-3.109-3.437,41.154,41.154,0,0,0-3.529-3.131A39.118,39.118,0,0,0,386.528,1314.5Zm-6.468-6.458a2.262,2.262,0,0,0-.555,1.714,10.94,10.94,0,0,0,1.828,5.278q1.229-1.486,2.716-2.987t2.93-2.711a11.021,11.021,0,0,0-5.287-1.832A2.027,2.027,0,0,0,380.06,1308.041Zm12.9,1.281q1.465,1.211,2.987,2.716,1.482,1.482,2.7,2.921c2.055-3.507,2.186-6.026,1.312-6.9a2.238,2.238,0,0,0-1.7-.555A10.994,10.994,0,0,0,392.964,1309.322ZM388.25,1318a1.749,1.749,0,1,1,1.749,1.749A1.749,1.749,0,0,1,388.25,1318Z" transform="translate(-376 -1304)" fill="#332a5e"/>
</svg>
