<svg id="Group_734" data-name="Group 734" xmlns="http://www.w3.org/2000/svg" width="30" height="30" viewBox="0 0 30 30">
  <path id="Path_4619" data-name="Path 4619" d="M15,0A15,15,0,1,1,4.393,4.393,14.954,14.954,0,0,1,15,0Zm4.555,2.5a1.082,1.082,0,0,0-.181.282c-.168.432-.181.159-.45.329-.181.833.029.513.177.435,1,.526.647,1.434,1.411.013a.624.624,0,0,1,0-.668q.215.1.423.2a.723.723,0,0,0,.052.26,1.166,1.166,0,0,0,.4-.022l.246.139c-.043.293-.311.141-.479.112l.058.493-.341-.027c-.018.724-.318.293-.8.634-.347-.128-.215-.13-.616-.1-.215.018,0-.018-.217-.069-.184.28-.421.226-.571.482a3.059,3.059,0,0,1-.549.515c-.188.081-.426.056-.578.132l.258.237-.354.036c.02.045.755.78.119.95-.376.1-.858-.672-.876.444-.009.518-.179.708.334.824.986.222.78-.526,1.042-.791.114-.114.157-.036.285-.215.343-.486.031-.269.654-.282l.056-.293c.132.11.2.022.325.188.2.282.759.482.867.907-.233.28-.036.11-.341.278l.17.123a.9.9,0,0,0,.3-.589c.177-.009.045.09.184-.031-.28-.253-.871-.574-.883-1.089.289-.013.6.455.91.627.258.146.226,1.066.6,1.122.287.043-.038-.09.262-.262-.116-.2-.186-.114-.17-.462.3.034.334-.105.567-.081-.022,2.012,2.1-.056,1.286,1.777-.152.345-.231.347-.63.3-.515-.063-1.2,0-1.456-.439-.09.161-.132.376-.24.542a3.43,3.43,0,0,1-1.4-.7c-.027-.383.123-.515.06-.672-.166-.179-1.922.587-2.355.376-.334-.166.2.038-.108-.063-.1.341-.428.435-.556.69-.231.47.087.276-.457.845-1,1.046-.515,1.768-.807,2.617-.215.636.184.8.379,1.149.746,1.351.824,1.362,2.216.921.311-.1.715-.217.934.141.2.334.479-.072.621.486a2.178,2.178,0,0,1-.09.91A2.874,2.874,0,0,1,19.9,18.7c-.437,1.006-.081.551.334,2.8.085.468.24.408.37.786.329.961-.009,1.091,1.16.627.815-.325,1.145-1.662,1.6-2-.027-.571-.168-.659.139-1.12.17-.26.509-.466.612-.656.479-.871-.574-1.6.179-2.7.576-.84,1.519-1.794,1.593-2.95a6.655,6.655,0,0,1-1.277.143c-.3-.665-.081-.6-.7-1.337A18.8,18.8,0,0,1,22.9,9.79c.392.311.208-.125.618.522.222.347.314.849.56,1.228,1.1,1.7.123,2.014,1.965,1.037a3.511,3.511,0,0,0,1.091-1.342c-.242-.428-.13.108-.58-.894-.287.166-.73,1.154-1.069-.108-.076-.289-.229-.524-.134-.8.558.7,1.147.632,1.322.822a.98.98,0,0,0,.86.28A13.3,13.3,0,0,1,8.5,26.6c-.029-.419.177-.307.1-.919a2.029,2.029,0,0,1-.246-.112c.056-.343.193-.334.2-.562.009-.349-.195-.161-.164-.533.168-.022.074.076.343.027l.016-.488c.285-.072.475.2.683-.515-.2-.269-.352-.105-.383-.515.838.486.869-.535,1.169-1.163.229-.477.074-.343.09-.793.576-.323.9-.157,1.066-.607.323-.885.177-1.492.423-2.231.15-.444.78-.905.141-1.317a1.454,1.454,0,0,0-1.053-.459c-.551-.016-.426-.571-1.346-.379a.781.781,0,0,0-.094-1.127c-.222-.188-.2-.034-.43-.15-.262-.132-.3-.412-.587-.58s-.475-.244-.618-.522c-.9-.011-.372.1-1.118-.287a1.183,1.183,0,0,1-.226.574,1.008,1.008,0,0,0-.231-.641c-.641.708-.912.665-.616,1.4a9.788,9.788,0,0,1-.681,1.349c-.1.246.04.24.094.5-.085.125-.343.229-.078.6.782,1.1.213,1.024,1.118,1.951,1.248,1.275.7-.531,1.01,4.875.029.491.112.318.267.638.5,1.042-.2.556.244,1.425A13.479,13.479,0,0,1,5.6,24.4,13.263,13.263,0,0,1,1.7,15a13.452,13.452,0,0,1,.276-2.7c.954.67.159-.358,1.32.535.323.246.468.052.739.392.222.28.285.95.925,1.01-.139-.3-.367-.363-.428-.6a7.3,7.3,0,0,1,.013-1.08A.849.849,0,0,0,3.88,12.5c.069-.535.668-1.275-.114-1.152-.164.343-.188.715-.661.632-.871-.152-.4-1.687-.186-1.958a1.689,1.689,0,0,1,.907-.493.381.381,0,0,0,.37.193c.777-1.089.99.636,1.111.809.455-.3-.018-.829.132-1.259.242-.334.945-.73,1.1-1.026.289-.54.571-1.01,1.1-1.071A1.229,1.229,0,0,1,8.657,6.3a.587.587,0,0,0-.166.5c.235-.094.309-.3.482-.374.188-.078.477-.052.468-.282-.152-.116-.381.114-.654-.063.063-.226.251-.2.222-.341-.19-.1-.414.034-.681,0,.186-.712,1.7.072,2.126-1-.186-.352-.229-.157-.412-.4-.161-.271-.045-.4-.076-.706-.049-.475-.5.287-.7.128-.146-.258-.011-.5-.273-.625.148-.074.293-.146.444-.213a.725.725,0,0,0,.618.121,2.934,2.934,0,0,1-.083-.354l.067-.027a1.718,1.718,0,0,1,.242.067,1.247,1.247,0,0,0-.02-.155,13.214,13.214,0,0,1,1.548-.484c.027.388.22,1.145.724,1.295.748-.927.186-.8,1-1.069.459-.152.289-.157.414-.285.251-.255.824-.22,1.187-.325A13.3,13.3,0,0,1,19.553,2.5ZM8.07,3.647a13.188,13.188,0,0,0-1.113.762L7,4.422c-.105.267-.316.7.222.67.195-.269.052-.414.269-.565.148-.105.349-.134.509-.24ZM24.782,19.356c.063,1.367-.336.925-.164,1.6a.467.467,0,0,0,.195.291c.506-.195.291-.083.717-1.4a1.984,1.984,0,0,0,.083-1.27A1.926,1.926,0,0,1,24.782,19.356Z" fill="#332a5e" fill-rule="evenodd"/>
</svg>
