<svg xmlns="http://www.w3.org/2000/svg" width="30" height="25.547" viewBox="0 0 30 25.547">
  <path id="Union_17" data-name="Union 17" d="M377.295,1329.548a1.281,1.281,0,0,1-1.295-1.295v-22.958a1.295,1.295,0,0,1,2.589,0v21.664h26.116a1.3,1.3,0,0,1,1.295,1.295,1.281,1.281,0,0,1-1.295,1.295Zm4.611-5.495a1.3,1.3,0,0,1-.221-1.832l6.505-8.274a1.243,1.243,0,0,1,.947-.505,1.31,1.31,0,0,1,1.011.379l2.842,2.811,4.105-4.705-1.737-1.516a.965.965,0,0,1,.316-1.642l6.821-2.305a.968.968,0,0,1,1.263,1.1l-1.421,7.074a.968.968,0,0,1-1.579.537l-1.737-1.516L394,1319.379a1.279,1.279,0,0,1-.947.442,1.337,1.337,0,0,1-.948-.379l-2.779-2.779-5.621,7.169a1.227,1.227,0,0,1-1.011.505A1.344,1.344,0,0,1,381.906,1324.053Z" transform="translate(-376 -1304)" fill="#332a5e"/>
</svg>
