<svg xmlns="http://www.w3.org/2000/svg" width="30" height="44.419" viewBox="0 0 30 44.419">
  <path id="Union_18" data-name="Union 18" d="M379.511,1348.418a.479.479,0,0,1,0-.958h22.978a.479.479,0,1,1,0,.958Zm.929-1.344a2.331,2.331,0,0,1-2.327-2.269l-2.1-12.2-.009-.054v-.055a2.331,2.331,0,0,1,2.324-2.328h25.352A2.33,2.33,0,0,1,406,1332.5v.054l-.009.055-2.1,12.2a2.331,2.331,0,0,1-2.327,2.269ZM390,1338.41a1,1,0,1,0,1-1A1,1,0,0,0,390,1338.41Zm13.675-8.88H378.324a8.507,8.507,0,0,1,7.515-6.612c.033,1.55,2.331,2.8,5.161,2.8s5.127-1.251,5.161-2.8a8.507,8.507,0,0,1,7.515,6.612Zm-19.087-14.114c-.006-.061-.012-.122-.016-.183-.03-.2-.049-.406-.061-.612-.007-.142-.013-.283-.013-.427a6.826,6.826,0,0,1,.262-1.908V1309.7l-.687-.3-1.4-.608.047.38a.493.493,0,0,1,.069.956l.368,5.168a2.382,2.382,0,0,1-.1.765l-.3.9c-.069.205-.18.205-.248,0l-.3-.9a2.368,2.368,0,0,1-.1-.765l.369-5.168a.493.493,0,0,1,.068-.956l.052-.408-.608-.263c-.543-.235-.543-.619,0-.855l8.02-3.472a2.847,2.847,0,0,1,1.974,0l8.021,3.472c.543.235.543.619,0,.855l-2.077.9-.687.3v2.588a7.219,7.219,0,0,1,.188.868,7.354,7.354,0,0,1,.074,1.039c0,.144-.006.286-.013.427-.012.207-.031.41-.061.612,0,.062-.01.122-.016.183-.41,4.642-3.126,8.229-6.416,8.229S385,1320.059,384.585,1315.416Zm6.415,7.234c2.878,0,5.255-3.126,5.629-7.182a2.73,2.73,0,0,0-.9.423,11.167,11.167,0,0,0,.085-2.919l-.839.362-2.986,1.293a2.85,2.85,0,0,1-1.974,0l-2.986-1.293-.838-.362a11.112,11.112,0,0,0,.084,2.919,2.735,2.735,0,0,0-.9-.423C385.744,1319.524,388.122,1322.651,391,1322.651Z" transform="translate(-376 -1304)" fill="#332a5e"/>
</svg>
