<svg xmlns="http://www.w3.org/2000/svg" width="30" height="30" viewBox="0 0 30 30">
  <g id="Group_735" data-name="Group 735" transform="translate(0 -1)">
    <path id="Path_4626" data-name="Path 4626" d="M3.239,10.423h3.8v2.723h-3.8Zm14.742,0,4.225-.657.423,2.676-4.225.7Zm4.836,2.958.141.892-4.225.7-.141-.892Zm.282,1.878L25.164,27.84H28.92a1.08,1.08,0,0,1,0,2.16H1.268C.423,29.906.141,29.671,0,28.92V1.08A1.062,1.062,0,0,1,1.08,0,1.062,1.062,0,0,1,2.16,1.08V27.84h1.08V16.009h3.8V27.84h1.08V16.009h4.554V27.84h.8V16.009h4.319V27.84h3.052L18.873,15.915Zm-9.624-4.836h4.319v2.723H13.474Zm4.319,3.709v.892H13.474v-.892ZM8.122,10.423h4.554v2.723H8.122Zm4.554,3.709v.892H8.122v-.892Zm-5.634,0v.892h-3.8v-.892Z" transform="translate(0 1)" fill="#332a5e" fill-rule="evenodd"/>
  </g>
</svg>
