<svg xmlns="http://www.w3.org/2000/svg" width="100" height="100" viewBox="0 0 30 21.132">
  <path id="Union_14" data-name="Union 14" d="M15.685,21.085a.7.7,0,0,1-.447-.651l.014-16.188a.814.814,0,0,1,.275-.554C18.552,1.384,21.633.006,24.708,0h0a10.109,10.109,0,0,1,2.128.222A.7.7,0,0,1,27.388.9q-.005,8.269-.01,16.539a.7.7,0,0,1-.789.691,13.39,13.39,0,0,0-8.144,1.6h10.16V3.987a.7.7,0,1,1,1.395,0V20.434a.7.7,0,0,1-.2.493.7.7,0,0,1-.226.151.7.7,0,0,1-.267.053H15.936A.7.7,0,0,1,15.685,21.085Zm-1.658.042H.7a.662.662,0,0,1-.261-.044A.7.7,0,0,1,.055,20.7.725.725,0,0,1,0,20.43V3.983a.666.666,0,0,1,.055-.261A.7.7,0,0,1,.436,3.34.665.665,0,0,1,.7,3.285.717.717,0,0,1,.97,3.34a.7.7,0,0,1,.382.381.673.673,0,0,1,.044.261v15.75H11.553a13.375,13.375,0,0,0-8.142-1.6.7.7,0,0,1-.294-.022.667.667,0,0,1-.251-.142.737.737,0,0,1-.185-.24.673.673,0,0,1-.055-.283q0-8.269-.011-16.534A.736.736,0,0,1,2.649.67a.724.724,0,0,1,.12-.207.686.686,0,0,1,.392-.24A10.211,10.211,0,0,1,5.3,0c3.076,0,6.149,1.377,9.177,3.684a.823.823,0,0,1,.283.556l.011,16.185a.748.748,0,0,1-.066.283.671.671,0,0,1-.153.229.686.686,0,0,1-.24.142.727.727,0,0,1-.25.044Zm-.654-1.973L13.363,4.593c-2.782-2.064-5.455-3.2-8.055-3.2a8.845,8.845,0,0,0-1.3.1q0,7.591.011,15.183.5-.037,1.01-.037A16.039,16.039,0,0,1,13.373,19.155Z" transform="translate(0 0)" fill="#000"/>
</svg>
