<svg xmlns="http://www.w3.org/2000/svg" width="100" height="100" viewBox="0 0 18 18">
  <path id="Path_149" data-name="Path 149" d="M2.25,5.625V15.75h13.5V5.625ZM14.625,2.25h2.25A1.063,1.063,0,0,1,18,3.375v13.5A1.063,1.063,0,0,1,16.875,18H1.125A1.063,1.063,0,0,1,0,16.875V3.375A1.063,1.063,0,0,1,1.125,2.25h2.25V1.125A1.063,1.063,0,0,1,4.5,0,1.063,1.063,0,0,1,5.625,1.125V2.25h6.75V1.125a1.125,1.125,0,1,1,2.25,0ZM13.5,13.5H11.25V11.25H13.5Zm-3.375,0H7.875V11.25h2.25ZM13.5,10.125H11.25V7.875H13.5Zm-3.375,0H7.875V7.875h2.25ZM6.75,13.5H4.5V11.25H6.75Z" fill="#000" fill-rule="evenodd"/>
</svg>
