<svg xmlns="http://www.w3.org/2000/svg" width="100" height="100" viewBox="0 0 16 16">
  <path id="Path_4611" data-name="Path 4611" d="M4.571,4A.572.572,0,0,0,4,4.563,15.446,15.446,0,0,0,19.437,20,.572.572,0,0,0,20,19.429V16.477a1.079,1.079,0,0,0-.962-1.088,11.311,11.311,0,0,1-3.512-.877,1.111,1.111,0,0,0-1.367.359c-.513.738-1.047,1.621-1.047,1.621a14.326,14.326,0,0,1-5.615-5.6s.89-.536,1.632-1.05a1.112,1.112,0,0,0,.359-1.368,11.325,11.325,0,0,1-.877-3.514A1.078,1.078,0,0,0,7.523,4Z" transform="translate(-4 -4)" fill="#000"/>
</svg>
