<svg xmlns="http://www.w3.org/2000/svg" width="54.036" height="53.58" viewBox="0 0 54.036 53.58">
  <g id="open-book" transform="translate(0 -2.129)">
    <g id="Group_9084" data-name="Group 9084" transform="translate(0.803 9.441)">
      <path id="Path_4631" data-name="Path 4631" d="M268.3,148.093h-24.7v37.146a.421.421,0,0,0,.362-.213,2.638,2.638,0,0,1,2.278-1.306H268.3Z" transform="translate(-218.317 -139.771)" fill="#0078c8"/>
      <g id="Group_9082" data-name="Group 9082" transform="translate(45.422 8.321)">
        <path id="Path_4632" data-name="Path 4632" d="M436.139,148.092H431.6a.611.611,0,0,1,.611.611v34.407a.611.611,0,0,1-.611.611h4.543a.611.611,0,0,0,.611-.611V148.7A.611.611,0,0,0,436.139,148.092Z" transform="translate(-431.596 -148.092)" fill="#0268b4"/>
      </g>
      <path id="Path_4633" data-name="Path 4633" d="M264.617,129.239H245.131a1.526,1.526,0,0,0-1.526,1.526v32.842h.248a1.524,1.524,0,0,1,1.279-.695h19.486Z" transform="translate(-218.317 -122.937)" fill="#d5e3f4"/>
      <path id="Path_4634" data-name="Path 4634" d="M32.788,185.238V148.092H8.111a.611.611,0,0,0-.611.611v34.407a.611.611,0,0,0,.611.611H30.147a2.638,2.638,0,0,1,2.278,1.306A.421.421,0,0,0,32.788,185.238Z" transform="translate(-7.5 -139.771)" fill="#0268b4"/>
      <path id="Path_4635" data-name="Path 4635" d="M299.667,332.989H288.926a.829.829,0,0,1-.829-.829V324.1a.829.829,0,0,1,.829-.829h10.741a.829.829,0,0,1,.829.829v8.055A.829.829,0,0,1,299.667,332.989Z" transform="translate(-258.044 -296.191)" fill="#f47c7c"/>
      <path id="Path_4636" data-name="Path 4636" d="M60.536,163.607h.248V130.765a1.526,1.526,0,0,0-1.526-1.526H39.566a.712.712,0,0,0-.712.712V162.2a.712.712,0,0,0,.712.712H59.257a1.524,1.524,0,0,1,1.279.695Z" transform="translate(-35.496 -122.937)" fill="#b3dafe"/>
      <path id="Path_4637" data-name="Path 4637" d="M155.584,292.12v5.923l3.518-2.477a.592.592,0,0,0,0-.969Z" transform="translate(-139.724 -268.373)" fill="#e5eef9"/>
      <g id="Group_9083" data-name="Group 9083" transform="translate(42.871 6.302)">
        <path id="Path_4638" data-name="Path 4638" d="M411.409,129.239h-3.634a.712.712,0,0,1,.712.712V162.2a.712.712,0,0,1-.712.712h3.634a.712.712,0,0,0,.712-.712V129.951A.712.712,0,0,0,411.409,129.239Z" transform="translate(-407.775 -129.239)" fill="#b3dafe"/>
      </g>
      <path id="Path_4639" data-name="Path 4639" d="M328.321,85.011h5.968a8.151,8.151,0,0,1,1.885-3.088,6.792,6.792,0,1,0-9.737,0,8.147,8.147,0,0,1,1.884,3.087Z" transform="translate(-290.561 -70.399)" fill="#fdb97e"/>
      <path id="Path_4640" data-name="Path 4640" d="M360.063,206.83h5.968v2.444a2.984,2.984,0,1,1-5.968,0Z" transform="translate(-322.302 -192.218)" fill="#678d98"/>
      <path id="Path_4641" data-name="Path 4641" d="M382.058,76.9a6.794,6.794,0,0,0-8.3-6.325,6.789,6.789,0,0,1,3.358,11.353,8.151,8.151,0,0,0-1.885,3.088h3.028a8.151,8.151,0,0,1,1.885-3.088A6.768,6.768,0,0,0,382.058,76.9Z" transform="translate(-334.528 -70.4)" fill="#fea95c"/>
      <path id="Path_4642" data-name="Path 4642" d="M375.257,206.83v2.444a2.982,2.982,0,0,1-1.47,2.571,2.984,2.984,0,0,0,4.5-2.571V206.83Z" transform="translate(-334.556 -192.218)" fill="#537983"/>
      <path id="Path_4643" data-name="Path 4643" d="M155.584,292.12v5.923l3.518-2.477a.592.592,0,0,0,0-.969Z" transform="translate(-139.724 -268.373)" fill="#f9c6c6"/>
      <path id="Path_4644" data-name="Path 4644" d="M159.1,295.566a.592.592,0,0,0,0-.969l-3.518-2.477v2.726l2.27,1.6Z" transform="translate(-139.723 -268.373)" fill="#f9b1b1"/>
      <path id="Path_4645" data-name="Path 4645" d="M8.448,292.079a.948.948,0,0,0-.948.948v2.73a.948.948,0,0,1,.948-.948h3.777v-2.73Z" transform="translate(-7.5 -268.336)" fill="#e94444"/>
      <path id="Path_4646" data-name="Path 4646" d="M51.614,297.776H62.75v5.318H51.614Z" transform="translate(-46.889 -273.423)" fill="#d83131"/>
      <path id="Path_4647" data-name="Path 4647" d="M7.5,298.724v3.422a.948.948,0,0,0,.948.948h3.777v-5.318H8.448A.948.948,0,0,0,7.5,298.724Z" transform="translate(-7.5 -273.423)" fill="#f47c7c"/>
      <path id="Path_4648" data-name="Path 4648" d="M51.614,292.12H62.75v2.726H51.614Z" transform="translate(-46.889 -268.373)" fill="#ca2c2c"/>
      <path id="Path_4649" data-name="Path 4649" d="M7.5,293.068v2.726a.948.948,0,0,1,.948-.948h3.777V292.12H8.448A.948.948,0,0,0,7.5,293.068Z" transform="translate(-7.5 -268.373)" fill="#ee6161"/>
    </g>
    <g id="Group_9085" data-name="Group 9085" transform="translate(0 2.129)">
      <path id="Path_4650" data-name="Path 4650" d="M279.031,280.677h12.755a.888.888,0,0,0,0-1.777H279.031a.888.888,0,0,0,0,1.777Z" transform="translate(-248.353 -249.257)"/>
      <path id="Path_4651" data-name="Path 4651" d="M292.97,315.774H282.229a1.634,1.634,0,0,0-1.632,1.633v8.055a1.634,1.634,0,0,0,1.632,1.633H292.97a1.634,1.634,0,0,0,1.632-1.633v-8.055A1.634,1.634,0,0,0,292.97,315.774Zm.026,9.688a.026.026,0,0,1-.026.026H282.229a.026.026,0,0,1-.026-.026v-8.055a.026.026,0,0,1,.026-.026H292.97a.026.026,0,0,1,.026.026v8.055Z" transform="translate(-250.544 -282.182)"/>
      <path id="Path_4652" data-name="Path 4652" d="M381.229,6.1a.8.8,0,0,0,.8-.8V2.932a.8.8,0,1,0-1.607,0V5.3A.8.8,0,0,0,381.229,6.1Z" transform="translate(-339.681 -2.129)"/>
      <path id="Path_4653" data-name="Path 4653" d="M314.852,26.358a.8.8,0,0,0,1.136-1.136l-1.673-1.674a.8.8,0,0,0-1.136,1.136Z" transform="translate(-279.426 -21.044)"/>
      <path id="Path_4654" data-name="Path 4654" d="M433.087,26.594a.8.8,0,0,0,.568-.235l1.673-1.673a.8.8,0,0,0-1.136-1.136l-1.674,1.673a.8.8,0,0,0,.568,1.371Z" transform="translate(-385.984 -21.045)"/>
      <path id="Path_4655" data-name="Path 4655" d="M470.591,82.627h-2.367a.8.8,0,0,0,0,1.607h2.367a.8.8,0,1,0,0-1.607Z" transform="translate(-417.359 -74.005)"/>
      <path id="Path_4656" data-name="Path 4656" d="M272.135,84.234H274.5a.8.8,0,1,0,0-1.607h-2.367a.8.8,0,0,0,0,1.607Z" transform="translate(-242.271 -74.005)"/>
      <path id="Path_4657" data-name="Path 4657" d="M74.28,167.806H87.035a.888.888,0,0,0,0-1.777H74.28a.888.888,0,0,0,0,1.777Z" transform="translate(-65.531 -148.475)"/>
      <path id="Path_4658" data-name="Path 4658" d="M74.28,205.431H87.035a.888.888,0,0,0,0-1.777H74.28a.888.888,0,0,0,0,1.777Z" transform="translate(-65.531 -182.07)"/>
      <path id="Path_4659" data-name="Path 4659" d="M87.923,242.165a.888.888,0,0,0-.888-.889H74.28a.888.888,0,0,0,0,1.777H87.035A.888.888,0,0,0,87.923,242.165Z" transform="translate(-65.531 -215.663)"/>
      <path id="Path_4660" data-name="Path 4660" d="M74.28,384.141H87.035a.888.888,0,0,0,0-1.777H74.28a.888.888,0,0,0,0,1.777Z" transform="translate(-65.531 -341.64)"/>
      <path id="Path_4661" data-name="Path 4661" d="M50.1,71.222h-.988q.034-.36.034-.726a7.542,7.542,0,0,0-1.211-4.1.8.8,0,0,0-1.349.872,5.952,5.952,0,0,1,.672,5.043,6.709,6.709,0,0,1-1.677,2.643L45.535,75a9.057,9.057,0,0,0-1.56,2.512H39.121a9.055,9.055,0,0,0-1.865-2.844,5.987,5.987,0,0,1,4.293-10.161q.118,0,.236,0a5.873,5.873,0,0,1,2.351.588.8.8,0,1,0,.7-1.446,7.472,7.472,0,0,0-2.99-.747,7.609,7.609,0,0,0-7.78,6.3H27.617a2.319,2.319,0,0,0-1.526.572,2.319,2.319,0,0,0-1.526-.572H4.874a1.517,1.517,0,0,0-1.516,1.516v.5H2.085A2.088,2.088,0,0,0,0,73.308V94.939a.8.8,0,1,0,1.607,0v-.767q.071.006.144.006H3.358c0,9.5-.014,8.878.031,9.095a1.518,1.518,0,0,0,1.485,1.211H24.565c.451,0,.581.336.723.471v2.429a3.445,3.445,0,0,0-1.837-.534H2.085a.479.479,0,0,1-.479-.479V98.687a.8.8,0,0,0-1.607,0v7.684a2.088,2.088,0,0,0,2.085,2.085H23.451a1.846,1.846,0,0,1,1.585.909,1.221,1.221,0,0,0,2.11,0,1.846,1.846,0,0,1,1.585-.909H50.1a2.088,2.088,0,0,0,2.085-2.085V73.308A2.088,2.088,0,0,0,50.1,71.222ZM41.548,82.941a2.183,2.183,0,0,1-2.181-2.181V79.12h4.362v1.641A2.183,2.183,0,0,1,41.548,82.941ZM27.617,70.81H33.96a7.637,7.637,0,0,0,.822,3.137h-4.1a.888.888,0,1,0,0,1.777h5.364a7.3,7.3,0,0,1,1.526,2.253H30.678a.888.888,0,1,0,0,1.777h7.082v1.007a3.767,3.767,0,0,0,.211,1.245H30.678a.888.888,0,1,0,0,1.777l8.552-.03a3.784,3.784,0,0,0,6.105-2.992v-2.3a7.747,7.747,0,0,1,1.882-2.911v27.329h-19.6a2.463,2.463,0,0,0-.719.114V71.533a.724.724,0,0,1,.723-.723Zm-26.011,2.5a.479.479,0,0,1,.479-.479H3.358V86.648H1.751q-.073,0-.144.006Zm.144,19.264a.145.145,0,0,1-.144-.144V88.4a.145.145,0,0,1,.144-.144H4.725v4.317H1.751Zm3.777,1.607H16.664a.819.819,0,0,0,.458-.144l0,0,3.518-2.477a1.4,1.4,0,0,0,0-2.282l-3.518-2.477,0,0a.8.8,0,0,0-.422-.142l-.036,0H4.965V70.81h19.6a.724.724,0,0,1,.723.723v31.458a2.478,2.478,0,0,0-.718-.114H4.965v-8.7ZM15.86,92.571H6.331V88.255H15.86Zm3.614-2.158-2.007,1.413V89Zm31.1,15.958a.479.479,0,0,1-.479.479H28.731a3.446,3.446,0,0,0-1.837.534v-2.429c.146-.14.268-.471.723-.471H47.308a1.517,1.517,0,0,0,1.516-1.516V72.829H50.1a.479.479,0,0,1,.479.479v33.064Z" transform="translate(0 -56.392)"/>
    </g>
  </g>
</svg>
