<svg id="idea" xmlns="http://www.w3.org/2000/svg" width="57.858" height="59.985" viewBox="0 0 57.858 59.985">
  <path id="Path_4662" data-name="Path 4662" d="M169.226,290.035a.925.925,0,0,1-.925-.925v-6.369a.925.925,0,0,1,1.85,0v6.369A.925.925,0,0,1,169.226,290.035Zm0,0" transform="translate(-148.583 -248.8)" fill="#f4af9d"/>
  <path id="Path_4663" data-name="Path 4663" d="M244.468,414.206V421H212.984l1.7-6.792a5.284,5.284,0,0,1,5.283-5.284h19.214A5.284,5.284,0,0,1,244.468,414.206Zm0,0" transform="translate(-188.032 -361.014)" fill="#3b485b"/>
  <path id="Path_4664" data-name="Path 4664" d="M270.936,414.206V421H242.965v-6.792a5.284,5.284,0,0,1,5.284-5.284h17.4A5.284,5.284,0,0,1,270.936,414.206Zm0,0" transform="translate(-214.5 -361.014)" fill="#515f75"/>
  <path id="Path_4665" data-name="Path 4665" d="M271.461,408.926l-.321,8.126,3.416.854-3.067,3.067h18.86l-3.067-3.067,3.416-.854-.321-8.126" transform="translate(-239.375 -361.017)" fill="#3b485b"/>
  <path id="Path_4666" data-name="Path 4666" d="M312.058,408.926,308.618,421h-6.142l-3.441-12.075" transform="translate(-264.001 -361.017)" fill="#f2f2f2"/>
  <path id="Path_4667" data-name="Path 4667" d="M318.691,428.513l4.208,5.268,4.167-5.248-4.167-.778Z" transform="translate(-281.354 -377.639)" fill="#f74866"/>
  <path id="Path_4668" data-name="Path 4668" d="M300.968,415.71l4.578-4.578,4.578,4.578,1.933-6.784H299.035Zm0,0" transform="translate(-264.001 -361.017)" fill="#e6e6e6"/>
  <path id="Path_4669" data-name="Path 4669" d="M329.032,350.985v6.785l-3.914,2.205-1.209-.681L321.2,357.77V350.98h2.705Zm0,0" transform="translate(-283.572 -309.861)" fill="#f9c2af"/>
  <path id="Path_4670" data-name="Path 4670" d="M328.582,483.038l3.05-3.843,3.071,3.843" transform="translate(-290.086 -423.054)" fill="#f74866"/>
  <path id="Path_4671" data-name="Path 4671" d="M323.908,350.982H321.2v6.789l2.705,1.524v-3.139c.4.039.8.062,1.215.062a12.27,12.27,0,0,0,3.909-.635v-4.6Zm0,0" transform="translate(-283.572 -309.861)" fill="#ea9e8f"/>
  <path id="Path_4672" data-name="Path 4672" d="M221.972,240.256a3.324,3.324,0,1,1,0-6.608h24.575a3.324,3.324,0,1,1,0,6.608" transform="translate(-192.708 -206.275)" fill="#ea9e8f"/>
  <path id="Path_4673" data-name="Path 4673" d="M274.357,171.938v12.288a12.288,12.288,0,0,1-24.576,0V171.938Zm0,0" transform="translate(-220.518 -151.794)" fill="#f9c2af"/>
  <path id="Path_4674" data-name="Path 4674" d="M261.982,196.512a12.286,12.286,0,0,1-12.2-12.287V171.938h5.532v12.288a18.409,18.409,0,0,0,1.978,8.689C258.5,195.1,260.151,196.47,261.982,196.512Zm0,0" transform="translate(-220.518 -151.794)" fill="#ea9e8f"/>
  <path id="Path_4675" data-name="Path 4675" d="M385.831,250.529a.815.815,0,0,1-.815-.815v-1.707a.815.815,0,1,1,1.63,0v1.707A.815.815,0,0,1,385.831,250.529Zm0,0" transform="translate(-339.908 -218.231)" fill="#293544"/>
  <path id="Path_4676" data-name="Path 4676" d="M311.21,250.529a.815.815,0,0,1-.815-.815v-1.707a.815.815,0,1,1,1.63,0v1.707A.815.815,0,0,1,311.21,250.529Zm0,0" transform="translate(-274.03 -218.231)" fill="#293544"/>
  <path id="Path_4677" data-name="Path 4677" d="M274.357,171.938v3.079a12.46,12.46,0,0,1-3.046,1.564,19.458,19.458,0,0,1-11.811.214h0a20.676,20.676,0,0,1-4.353-1.715s-1.12,5.393-5.365,5.393v-8.534Zm0,0" transform="translate(-220.518 -151.794)" fill="#ea9e8f"/>
  <path id="Path_4678" data-name="Path 4678" d="M250.686,74.06a19.46,19.46,0,0,1-11.811.215,0,0,0,0,1,0,0,20.706,20.706,0,0,1-4.352-1.715s-1.121,5.393-5.365,5.393c0,0-2.824-4.995-2.735-9.616a4.268,4.268,0,0,1,5.544-3.993,7.822,7.822,0,0,1,7.821-5.065c.536.033,1.075.076,1.616.124l.312.028.032,0c5.616.527,11.3,1.554,14.647-2.144C256.393,57.289,261.917,70.014,250.686,74.06Zm0,0" transform="translate(-199.893 -50.577)" fill="#515f75"/>
  <path id="Path_4679" data-name="Path 4679" d="M239.787,74.147c.536.033,1.075.076,1.616.124-4.955-.209-8.892,10.7-2.529,14.872a20.721,20.721,0,0,1-4.352-1.716s-1.121,5.393-5.365,5.393c0,0-2.824-4.994-2.735-9.616a4.268,4.268,0,0,1,5.544-3.993A7.822,7.822,0,0,1,239.787,74.147Zm0,0" transform="translate(-199.893 -65.447)" fill="#3b485b"/>
  <path id="Path_4680" data-name="Path 4680" d="M357,75.563l-.034,0,.032,0Zm0,0" transform="translate(-315.144 -66.706)" fill="#f4af9d"/>
  <path id="Path_4681" data-name="Path 4681" d="M325.8,309.738a5.061,5.061,0,0,1-3.591-1.485.815.815,0,1,1,1.153-1.152,3.452,3.452,0,0,0,4.876,0,.815.815,0,0,1,1.153,1.152A5.061,5.061,0,0,1,325.8,309.738Zm0,0" transform="translate(-284.254 -270.911)" fill="#e06e86"/>
  <path id="Path_4682" data-name="Path 4682" d="M175.237,335.367v5.781H168.3v-5.781a1.156,1.156,0,0,1,1.156-1.156h4.625A1.156,1.156,0,0,1,175.237,335.367Zm0,0" transform="translate(-148.583 -295.056)" fill="#f4af9d"/>
  <path id="Path_4683" data-name="Path 4683" d="M196.3,335.367v5.781h-4.141v-5.781a1.155,1.155,0,0,1,1.156-1.156h1.83A1.156,1.156,0,0,1,196.3,335.367Zm0,0" transform="translate(-169.651 -295.056)" fill="#f9c2af"/>
  <path id="Path_4684" data-name="Path 4684" d="M168.3,393.414h6.937v13.86H168.3Zm0,0" transform="translate(-148.583 -347.323)" fill="#515f75"/>
  <path id="Path_4685" data-name="Path 4685" d="M168.3,393.414h2.775v13.86H168.3Zm0,0" transform="translate(-148.583 -347.323)" fill="#3b485b"/>
  <path id="Path_4686" data-name="Path 4686" d="M101.114,167.617v5.664a3.293,3.293,0,0,1-2.93,3.273,3.2,3.2,0,0,1-.365.021H95.424a3.294,3.294,0,0,1-3.3-3.294v-5.664Zm0,0" transform="translate(-81.335 -147.98)" fill="#3b485b"/>
  <path id="Path_4687" data-name="Path 4687" d="M124.654,167.617v5.664a2.948,2.948,0,1,1-5.861,0v-5.664Zm0,0" transform="translate(-104.875 -147.98)" fill="#515f75"/>
  <path id="Path_4688" data-name="Path 4688" d="M74.217,65.607A8.6,8.6,0,0,1,70.1,72.95H61.119a8.608,8.608,0,1,1,13.1-7.342Zm0,0" transform="translate(-50.325 -50.322)" fill="#eaad18"/>
  <g id="Group_9086" data-name="Group 9086" transform="translate(0 0)">
    <path id="Path_4689" data-name="Path 4689" d="M108.5,67.9a8.6,8.6,0,0,1-4.114,7.342H99.951A8.608,8.608,0,0,1,102.169,59.6,8.609,8.609,0,0,1,108.5,67.9Zm0,0" transform="translate(-84.608 -52.619)" fill="#ffc627"/>
    <path id="Path_4690" data-name="Path 4690" d="M3.5,124.427H.925a.925.925,0,1,1,0-1.849H3.5a.925.925,0,1,1,0,1.849Zm0,0" transform="translate(0 -108.217)" fill="#ffc627"/>
    <path id="Path_4691" data-name="Path 4691" d="M210.589,64.427a.925.925,0,0,1-.464-1.726l2.234-1.29a.925.925,0,1,1,.925,1.6l-2.234,1.29A.919.919,0,0,1,210.589,64.427Zm0,0" transform="translate(-185.1 -54.107)" fill="#ffc627"/>
    <path id="Path_4692" data-name="Path 4692" d="M17.347,175.995a.925.925,0,0,1-.463-1.726l2.234-1.29a.925.925,0,0,1,.925,1.6l-2.234,1.29A.921.921,0,0,1,17.347,175.995Zm0,0" transform="translate(-14.498 -152.604)" fill="#ffc627"/>
    <path id="Path_4693" data-name="Path 4693" d="M173.779,20.505a.925.925,0,0,1-.8-1.387l1.29-2.234a.925.925,0,1,1,1.6.925l-1.29,2.234A.924.924,0,0,1,173.779,20.505Zm0,0" transform="translate(-152.604 -14.498)" fill="#ffc627"/>
    <path id="Path_4694" data-name="Path 4694" d="M123.5,4.429a.925.925,0,0,1-.924-.925V.925a.925.925,0,1,1,1.849,0V3.5A.924.924,0,0,1,123.5,4.429Zm0,0" transform="translate(-108.217 0)" fill="#ffc627"/>
    <path id="Path_4695" data-name="Path 4695" d="M63.5,20.505a.924.924,0,0,1-.8-.462l-1.29-2.234a.925.925,0,1,1,1.6-.925l1.29,2.234a.925.925,0,0,1-.8,1.387Zm0,0" transform="translate(-54.108 -14.498)" fill="#ffc627"/>
    <path id="Path_4696" data-name="Path 4696" d="M19.579,64.427a.919.919,0,0,1-.461-.124l-2.234-1.29a.925.925,0,1,1,.925-1.6l2.234,1.29a.925.925,0,0,1-.464,1.726Zm0,0" transform="translate(-14.498 -54.107)" fill="#ffc627"/>
    <path id="Path_4697" data-name="Path 4697" d="M226.641,124.427h-2.579a.925.925,0,1,1,0-1.849h2.579a.925.925,0,1,1,0,1.849Zm0,0" transform="translate(-196.995 -108.217)" fill="#ffc627"/>
    <path id="Path_4698" data-name="Path 4698" d="M212.821,175.995a.921.921,0,0,1-.462-.124l-2.234-1.29a.925.925,0,0,1,.925-1.6l2.234,1.29a.925.925,0,0,1-.463,1.726Zm0,0" transform="translate(-185.1 -152.604)" fill="#ffc627"/>
  </g>
  <path id="Path_4699" data-name="Path 4699" d="M141.205,132.417v6.3h-1.85v-6.3a.925.925,0,0,1,1.85,0Zm0,0" transform="translate(-123.029 -116.087)" fill="#fff"/>
  <path id="Path_4700" data-name="Path 4700" d="M107.639,132.417v6.3h-1.85v-6.3a.925.925,0,0,1,1.85,0Zm0,0" transform="translate(-93.395 -116.087)" fill="#fff"/>
</svg>
